<svg width="433" height="324" viewBox="0 0 433 324" fill="none" xmlns="http://www.w3.org/2000/svg">
<rect width="433" height="324" fill="white"/>
<g clip-path="url(#clip0_101_37)">
<path d="M199.464 138.149V184.917H192.33L171.939 156.32V184.917H162.562V138.149H169.701L190.092 166.677V138.149H199.464Z" fill="#050931"/>
<path d="M277.394 138.149V184.917H268.017V138.149H277.394Z" fill="#050931"/>
<path d="M325.368 176.095H305.847V138.149H296.47V184.917H323.119L325.368 176.095Z" fill="#050931"/>
<path d="M251.748 138.149H216.275V146.971H229.049V184.917H238.432V146.971H249.499L251.748 138.149Z" fill="#050931"/>
<path d="M129.439 176.734C131.984 176.734 133.986 174.766 133.986 172.265V138.149H143.357V172.449C143.357 179.868 137.265 185.851 129.724 185.851H121.27C113.723 185.851 107.631 179.862 107.631 172.449V138.149H116.928V172.265C116.928 174.766 118.93 176.734 121.474 176.734H129.439Z" fill="#050931"/>
</g>
<defs>
<clipPath id="clip0_101_37">
<rect width="217.737" height="47.7017" fill="white" transform="translate(107.631 138.149)"/>
</clipPath>
</defs>
</svg>
